HIERARCHY
ROOT root
{
	OFFSET	0	13.1	24.9
	CHANNELS 6  Xposition Yposition Zposition Xrotation Yrotation Zrotation
	JOINT spine_1
	{
		OFFSET	0	9.99999	0
		CHANNELS 3  Xrotation Yrotation Zrotation
		JOINT spine_2
		{
			OFFSET	0	112	-10
			CHANNELS 3  Xrotation Yrotation Zrotation
			JOINT spine_3
			{
				OFFSET	0	206.5	19.3
				CHANNELS 3  Xrotation Yrotation Zrotation
				JOINT spine_4
				{
					OFFSET	0	110.4	14.6
					CHANNELS 3  Xrotation Yrotation Zrotation
					JOINT neck_1
					{
						OFFSET	0	71.8	-50.3
						CHANNELS 3  Xrotation Yrotation Zrotation
						JOINT neck_2
						{
							OFFSET	0	86.2	-25.8
							CHANNELS 3  Xrotation Yrotation Zrotation
							JOINT head_ee
							{
								OFFSET	0	179.8	-8.7
								CHANNELS 3  Xrotation Yrotation Zrotation
								End Site
								{
									OFFSET	1	0	0
								}
							}
						}
					}
					JOINT left_clavicle
					{
						OFFSET	-43.2	22.4	-70.8
						CHANNELS 3  Xrotation Yrotation Zrotation
						JOINT left_shoulder
						{
							OFFSET	-93.9	-5.79999	48.7
							CHANNELS 3  Xrotation Yrotation Zrotation
							JOINT left_elbow
							{
								OFFSET	-291.4	-30.8	15.2
								CHANNELS 3  Xrotation Yrotation Zrotation
								JOINT left_lowarm_twist
								{
									OFFSET	-110.7	-3.89999	13.6
									CHANNELS 3  Xrotation Yrotation Zrotation
									JOINT left_hand
									{
										OFFSET	-110.7	-3.89999	13.6
										CHANNELS 3  Xrotation Yrotation Zrotation
										JOINT left_ee
										{
											OFFSET	-80.8	-5.10001	12.1
											CHANNELS 3  Xrotation Yrotation Zrotation
											End Site
											{
												OFFSET	1	0	0
											}
										}
									}
								}
							}
						}
					}
					JOINT right_clavicle
					{
						OFFSET	43.2	22.4	-70.8
						CHANNELS 3  Xrotation Yrotation Zrotation
						JOINT right_shoulder
						{
							OFFSET	93.9	-5.79999	48.7
							CHANNELS 3  Xrotation Yrotation Zrotation
							JOINT right_elbow
							{
								OFFSET	291.4	-30.8	15.2
								CHANNELS 3  Xrotation Yrotation Zrotation
								JOINT right_lowarm_twist
								{
									OFFSET	110.7	-3.89999	13.6
									CHANNELS 3  Xrotation Yrotation Zrotation
									JOINT right_hand
									{
										OFFSET	110.7	-3.89999	13.6
										CHANNELS 3  Xrotation Yrotation Zrotation
										JOINT right_ee
										{
											OFFSET	80.8	-5.10001	12.1
											CHANNELS 3  Xrotation Yrotation Zrotation
											End Site
											{
												OFFSET	1	0	0
											}
										}
									}
								}
							}
						}
					}
				}
			}
		}
	}
	JOINT left_hip
	{
		OFFSET	-82.8	-127.5	0.300001
		CHANNELS 3  Xrotation Yrotation Zrotation
		JOINT left_knee
		{
			OFFSET	-28.2	-396.7	2.2
			CHANNELS 3  Xrotation Yrotation Zrotation
			JOINT left_ankle
			{
				OFFSET	-11.7	-411.3	35.4
				CHANNELS 3  Xrotation Yrotation Zrotation
				JOINT left_toes
				{
					OFFSET	0	-60	-88.6
					CHANNELS 3  Xrotation Yrotation Zrotation
					JOINT left_foot_ee
					{
						OFFSET	-22.5	-16.5	-42.2
						CHANNELS 3  Xrotation Yrotation Zrotation
						End Site
						{
							OFFSET	1	0	0
						}
					}
				}
			}
		}
	}
	JOINT right_hip
	{
		OFFSET	82.8	-127.5	0.300001
		CHANNELS 3  Xrotation Yrotation Zrotation
		JOINT right_knee
		{
			OFFSET	28.2	-396.7	2.2
			CHANNELS 3  Xrotation Yrotation Zrotation
			JOINT right_ankle
			{
				OFFSET	11.7	-411.3	35.4
				CHANNELS 3  Xrotation Yrotation Zrotation
				JOINT right_toes
				{
					OFFSET	0	-60	-88.6
					CHANNELS 3  Xrotation Yrotation Zrotation
					JOINT right_foot_ee
					{
						OFFSET	22.5	-16.5	-42.2
						CHANNELS 3  Xrotation Yrotation Zrotation
						End Site
						{
							OFFSET	1	0	0
						}
					}
				}
			}
		}
	}
}
MOTION
Frames: 14
Frame Time: 0.02
1280.32322773 744.352 -1720.98169873 -7.29897782298 22.2904036371 -2.33421672894 4.01258 0.630542 2.99303 4.01745 0.438899 3.02704 4.0378 0.0084979 3.05866 4.02508 0.491226 3.019 -8.94658 8.9338 -1.96652 -8.99762 18.1046 0.16359 -0.0 0.0 -0.0 -0.524659 20.7538 1.65737 -62.1442 -63.6304 32.8235 0.620875 -17.0961 0.0933237 28.4426 0.111859 -3.59452 -0.53406 -14.8691 -9.94972 -0.0 0.0 -0.0 10.004 26.651 -18.802 -67.5088 67.339 -22.2896 1.33437 33.4634 -0.401153 -15.6988 0.809456 -1.83061 1.55881 -28.4947 -19.9991 0.0 0.0 0.0 39.8841 6.83054 -3.49211 -59.0696 -2.10036 8.42214 4.79094 -28.3884 -0.86203 -6.72016 0.0 0.0 -0.0 0.0 -0.0 24.6391 19.882 -5.45591 -19.413 -0.302161 -2.94953 37.8069 -15.8571 4.74347 -34.4399 0.0 0.0 0.0 0.0 0.0 
1279.42784503 743.134 -1731.29800972 -7.38620345208 20.0595238535 -2.56121362275 3.98784 0.647224 3.01687 3.99279 0.454033 3.0519 4.01413 0.0187272 3.0854 4.0012 0.505545 3.0438 -9.40893 8.93612 -2.10223 -9.47656 18.2196 0.106365 -0.0 0.0 -0.0 -0.976086 21.787 1.14779 -61.724 -63.3991 33.9688 0.605395 -16.6939 0.088825 28.8506 0.100447 -3.64539 -0.524178 -14.5434 -9.74476 -0.0 0.0 -0.0 10.6181 26.43 -20.2031 -65.7741 68.6826 -23.2633 1.34144 33.6027 -0.405055 -15.8788 0.821594 -1.8502 1.55981 -28.5037 -20.0072 0.0 0.0 0.0 41.8467 6.65668 -3.79148 -58.3392 -2.02334 8.33993 3.59256 -28.1488 -0.647133 -6.83229 0.0 0.0 -0.0 0.0 -0.0 24.229 19.5484 -5.59801 -19.4533 -0.301742 -2.95571 37.8466 -16.2263 4.75302 -34.0986 0.0 0.0 0.0 0.0 0.0 
1281.62463039 743.134 -1732.08195356 -7.3635038446 19.5728214269 -2.62817281769 3.98784 0.647224 3.01687 3.99279 0.454033 3.0519 4.01413 0.0187272 3.0854 4.0012 0.505545 3.0438 -9.40893 8.93612 -2.10223 -9.47656 18.2196 0.106365 -0.0 0.0 -0.0 -0.976086 21.787 1.14779 -61.724 -63.3991 33.9688 0.605395 -16.6939 0.088825 28.8506 0.100447 -3.64539 -0.524178 -14.5434 -9.74476 -0.0 0.0 -0.0 10.6181 26.43 -20.2031 -65.7741 68.6826 -23.2633 1.34144 33.6027 -0.405055 -15.8788 0.821594 -1.8502 1.55981 -28.5037 -20.0072 0.0 0.0 0.0 41.8467 6.65668 -3.79148 -58.3392 -2.02334 8.33993 3.59256 -28.1488 -0.647133 -6.83229 0.0 0.0 -0.0 0.0 -0.0 24.229 19.5484 -5.59801 -19.4533 -0.301742 -2.95571 37.8466 -16.2263 4.75302 -34.0986 0.0 0.0 0.0 0.0 0.0 
1256.39222644 741.331 -1748.23100971 -7.35930554251 21.194737309 -3.12879012103 3.96696 0.862668 3.01211 3.97176 0.669344 3.06083 4.0048 0.230434 3.12462 3.9919 0.720788 3.04914 -9.46426 9.05048 -1.65097 -9.53924 18.1294 0.585837 -0.0 0.0 -0.0 -1.4368 23.0804 0.690984 -60.6017 -62.553 36.9411 0.579741 -16.0235 0.0815991 30.0794 0.0638943 -3.79809 -0.440337 -13.8989 -8.90113 -0.0 0.0 -0.0 11.8496 27.6942 -22.8378 -63.0914 68.971 -22.0626 1.36579 34.0795 -0.41862 -16.3176 0.851443 -1.89778 1.58501 -26.1089 -19.5362 0.0 0.0 0.0 46.0031 6.28913 -4.46157 -53.6214 -1.55198 7.78632 0.204042 -29.1465 -0.0376459 -7.12742 0.0 0.0 -0.0 0.0 -0.0 21.8255 17.8189 -6.51309 -20.7697 -0.285695 -3.15704 36.8939 -15.8667 4.6563 -33.1825 0.0 0.0 0.0 0.0 0.0 
1234.38507267 739.37 -1759.79005531 -7.29994254211 22.7662693933 -2.19331507909 4.01301 0.830271 3.00397 4.0178 0.637529 3.05066 4.04896 0.202727 3.10991 4.03614 0.691106 3.03898 -8.75352 9.20874 -1.3895 -8.80549 18.213 0.765847 -0.0 0.0 -0.0 -1.51256 22.638 0.518332 -60.0462 -61.9148 38.4346 0.568012 -15.7155 0.078392 31.3865 0.0214251 -3.95963 -0.340131 -14.1312 -8.31886 -0.0 0.0 -0.0 11.9542 28.0048 -23.0365 -63.0881 68.044 -18.9019 1.4038 34.8129 -0.440118 -16.2958 0.849956 -1.89543 1.59475 -22.1653 -18.496 0.0 0.0 0.0 46.0998 6.80774 -4.9807 -52.7831 -1.47309 7.68403 0.650208 -29.0349 -0.119624 -6.68034 0.0 0.0 -0.0 0.0 -0.0 20.9424 16.0276 -6.19424 -21.1608 -0.280036 -3.21678 35.9124 -15.5389 4.5559 -33.1708 0.0 0.0 0.0 0.0 0.0 
1204.00162767 736.639 -1770.5359845 -7.1032570217 24.5169437766 -2.24797976516 4.03386 0.810833 3.01626 4.0387 0.61735 3.06168 4.06885 0.182252 3.11793 4.05591 0.672153 3.05013 -8.25742 9.29202 -1.27041 -8.29229 18.2588 0.822697 -0.0 0.0 -0.0 -1.58042 22.6348 0.423274 -59.7041 -61.4568 39.7574 0.559754 -15.4981 0.0761704 32.2994 -0.0104208 -4.07188 -0.266793 -14.2933 -7.89015 -0.0 0.0 -0.0 12.0157 28.1262 -23.1609 -62.7557 67.4399 -16.6912 1.43257 35.3594 -0.456652 -16.2859 0.849281 -1.89436 1.60519 -19.377 -17.7264 0.0 0.0 0.0 46.215 7.13878 -5.4485 -51.7427 -1.37731 7.55552 0.908656 -28.9281 -0.166803 -6.36596 0.0 0.0 -0.0 0.0 -0.0 18.5198 14.9102 -4.74672 -21.9758 -0.266933 -3.34117 35.2299 -15.3102 4.48521 -33.1617 0.0 0.0 0.0 0.0 0.0 
1186.7315972 731.429 -1780.16509421 -6.87547064697 26.4809189648 -2.23300142195 3.97911 0.796777 2.95343 3.98376 0.607315 2.99809 4.01288 0.178225 3.05374 4.00048 0.658053 2.98737 -7.30906 9.06785 -1.6789 -7.30291 18.0755 0.215809 -0.0 0.0 -0.0 -2.47177 22.9447 -0.764016 -60.3442 -61.3561 40.7903 0.656083 -18.0045 0.103941 32.9596 -0.0345647 -4.15273 -0.174524 -14.7698 -7.46756 -0.0 0.0 -0.0 11.1154 27.4405 -21.207 -60.9837 67.2556 -14.5689 1.45277 35.7389 -0.4684 -16.9247 0.893344 -1.96325 1.60657 -15.1659 -16.3886 0.0 0.0 0.0 44.5219 6.90017 -5.76619 -46.0393 -0.894979 6.82213 -2.30392 -26.3185 0.412855 -5.90525 0.0 0.0 -0.0 0.0 -0.0 17.1319 11.6967 -2.77005 -22.2369 -0.262362 -3.38096 34.0745 -14.6039 4.3601 -33.9512 0.0 0.0 0.0 0.0 0.0 
1169.88961037 736.475 -1784.92334198 -6.90946438247 26.5729958025 -2.1436101276 3.98159 0.720854 2.92291 3.98619 0.533485 2.9628 4.01115 0.109918 3.0084 3.99899 0.58345 2.95338 -7.63131 9.50078 -1.59023 -7.64001 18.8375 0.449648 -0.0 0.0 -0.0 -2.74758 23.146 -1.10873 -60.7321 -61.3349 41.5873 0.724369 -19.7396 0.126031 35.0074 -0.115363 -4.40169 -0.172325 -13.8739 -7.07175 -0.0 0.0 -0.0 10.4778 26.8904 -19.8364 -58.6817 66.5983 -14.3361 1.46792 36.0211 -0.477279 -18.7222 1.02146 -2.15445 1.54124 -8.25874 -13.5374 0.0 0.0 0.0 43.4233 7.25591 -5.24874 -40.2208 -0.480871 6.02916 -7.52811 -21.1778 1.28908 -5.01294 0.0 0.0 -0.0 0.0 -0.0 16.0692 8.1589 -1.35786 -22.0886 -0.264981 -3.35835 36.2997 -11.7625 4.55055 -35.8273 0.0 0.0 0.0 0.0 0.0 
1154.76380461 733.671 -1791.09154652 -6.12497443148 25.5698048449 -2.77957302737 3.92699 0.679741 2.93252 3.93164 0.491844 2.96979 3.95454 0.0646741 3.00951 3.94231 0.538947 2.96161 -8.13828 9.85692 -1.29324 -8.17333 19.324 0.90923 -0.0 0.0 -0.0 -2.54471 23.2672 -0.805779 -60.0666 -61.7102 42.4581 0.775805 -21.0223 0.143945 36.5683 -0.182909 -4.58946 -0.176903 -13.1513 -6.79512 -0.0 0.0 -0.0 10.3351 25.9854 -19.6161 -56.0267 66.5948 -15.4313 1.4906 36.4398 -0.490683 -20.0951 1.12332 -2.29775 1.51178 -3.21666 -11.4266 0.0 0.0 0.0 44.3266 6.88384 -6.02007 -34.4272 -0.150803 5.20266 -11.3495 -17.2123 1.88463 -4.4048 0.0 0.0 -0.0 0.0 -0.0 15.1062 5.68822 -0.190801 -22.1307 -0.264244 -3.36477 37.8372 -9.64729 4.67937 -37.1399 0.0 0.0 0.0 0.0 0.0 
1146.98467416 729.741 -1796.21856743 -5.95196543132 24.9460296805 -2.09288852376 3.92019 0.647423 2.84122 3.92456 0.465393 2.87662 3.9455 0.0512442 2.91354 3.93401 0.510549 2.86896 -8.48973 10.1022 -1.08837 -8.54403 19.6626 1.22893 -0.0 0.0 -0.0 -2.02935 22.874 -0.162307 -59.4446 -61.9379 42.9033 0.796159 -21.5239 0.15133 37.7426 -0.237085 -4.72948 -0.180422 -12.6456 -6.6035 -0.0 0.0 -0.0 11.2913 25.7937 -21.7925 -51.9871 67.7556 -17.454 1.5024 36.6558 -0.497707 -21.0277 1.19447 -2.3937 1.50237 0.420326 -9.91841 0.0 0.0 0.0 44.9922 6.76312 -6.33876 -30.4315 0.0272961 4.61554 -14.102 -14.0547 2.29102 -3.96062 0.0 0.0 -0.0 0.0 -0.0 14.992 3.83464 -0.162954 -22.2163 -0.26273 -3.37782 38.928 -7.91356 4.7695 -38.0545 0.0 0.0 0.0 0.0 0.0 
1130.51463203 732.297 -1803.96942777 -7.49443810326 24.7048727545 -1.60082277583 3.91667 0.627779 2.81537 3.92097 0.447432 2.84957 3.94084 0.0370594 2.88422 3.92957 0.491916 2.84224 -8.80432 9.8355 -2.07173 -8.86158 19.8613 0.252389 -0.0 0.0 -0.0 -1.80205 23.1327 0.19517 -59.4532 -62.1938 43.7067 0.798412 -21.5792 0.152157 37.9883 -0.248783 -4.75864 -0.160229 -12.6635 -6.47424 -0.0 0.0 -0.0 11.7403 26.0386 -22.7849 -48.3677 66.0384 -17.0244 1.47373 36.1288 -0.480699 -21.607 1.23945 -2.45272 1.47533 3.53716 -8.45879 0.0 0.0 0.0 45.3151 6.70336 -6.49183 -27.6569 0.126655 4.20136 -16.0987 -10.9226 2.56467 -2.93875 0.0 0.0 -0.0 0.0 -0.0 15.4214 4.70135 -1.19314 -22.2326 -0.262438 -3.38031 40.1018 -6.64619 4.86872 -38.5532 0.0 0.0 0.0 0.0 0.0 
1127.29599172 732.297 -1801.58022379 -7.52873305915 25.2630403977 -1.51962621026 3.91667 0.627779 2.81537 3.92097 0.447432 2.84957 3.94084 0.0370594 2.88422 3.92957 0.491916 2.84224 -8.80432 9.8355 -2.07173 -8.86158 19.8613 0.252389 -0.0 0.0 -0.0 -1.80205 23.1327 0.19517 -59.4532 -62.1938 43.7067 0.798412 -21.5792 0.152157 37.9883 -0.248783 -4.75864 -0.160229 -12.6635 -6.47424 -0.0 0.0 -0.0 11.7403 26.0386 -22.7849 -48.3677 66.0384 -17.0244 1.47373 36.1288 -0.480699 -21.607 1.23945 -2.45272 1.47533 3.53716 -8.45879 0.0 0.0 0.0 45.3151 6.70336 -6.49183 -27.6569 0.126655 4.20136 -16.0987 -10.9226 2.56467 -2.93875 0.0 0.0 -0.0 0.0 -0.0 15.4214 4.70135 -1.19314 -22.2326 -0.262438 -3.38031 40.1018 -6.64619 4.86872 -38.5532 0.0 0.0 0.0 0.0 0.0 
1123.84422039 732.297 -1798.96281646 -7.56696370097 25.8661956671 -1.43103395426 3.91667 0.627779 2.81537 3.92097 0.447432 2.84957 3.94084 0.0370594 2.88422 3.92957 0.491916 2.84224 -8.80432 9.8355 -2.07173 -8.86158 19.8613 0.252389 -0.0 0.0 -0.0 -1.80205 23.1327 0.19517 -59.4532 -62.1938 43.7067 0.798412 -21.5792 0.152157 37.9883 -0.248783 -4.75864 -0.160229 -12.6635 -6.47424 -0.0 0.0 -0.0 11.7403 26.0386 -22.7849 -48.3677 66.0384 -17.0244 1.47373 36.1288 -0.480699 -21.607 1.23945 -2.45272 1.47533 3.53716 -8.45879 0.0 0.0 0.0 45.3151 6.70336 -6.49183 -27.6569 0.126655 4.20136 -16.0987 -10.9226 2.56467 -2.93875 0.0 0.0 -0.0 0.0 -0.0 15.4214 4.70135 -1.19314 -22.2326 -0.262438 -3.38031 40.1018 -6.64619 4.86872 -38.5532 0.0 0.0 0.0 0.0 0.0 
1118.21685831 732.297 -1794.56973997 -7.63268778607 26.8600928608 -1.28303200877 3.91667 0.627779 2.81537 3.92097 0.447432 2.84957 3.94084 0.0370594 2.88422 3.92957 0.491916 2.84224 -8.80432 9.8355 -2.07173 -8.86158 19.8613 0.252389 -0.0 0.0 -0.0 -1.80205 23.1327 0.19517 -59.4532 -62.1938 43.7067 0.798412 -21.5792 0.152157 37.9883 -0.248783 -4.75864 -0.160229 -12.6635 -6.47424 -0.0 0.0 -0.0 11.7403 26.0386 -22.7849 -48.3677 66.0384 -17.0244 1.47373 36.1288 -0.480699 -21.607 1.23945 -2.45272 1.47533 3.53716 -8.45879 0.0 0.0 0.0 45.3151 6.70336 -6.49183 -27.6569 0.126655 4.20136 -16.0987 -10.9226 2.56467 -2.93875 0.0 0.0 -0.0 0.0 -0.0 15.4214 4.70135 -1.19314 -22.2326 -0.262438 -3.38031 40.1018 -6.64619 4.86872 -38.5532 0.0 0.0 0.0 0.0 0.0 
